<svg width="170" height="35" viewBox="0 0 170 35" fill="none" xmlns="http://www.w3.org/2000/svg">
<path d="M8.585 34.86C6.245 34.86 4.385 34.305 3.005 33.195C1.625 32.115 0.935 30.54 0.935 28.47C0.935 26.97 1.25 25.56 1.88 24.24C2.54 22.89 3.425 21.69 4.535 20.64C5.645 19.59 6.905 18.765 8.315 18.165C9.755 17.565 11.255 17.265 12.815 17.265C14.405 17.265 15.65 17.625 16.55 18.345C17.48 19.065 17.945 20.04 17.945 21.27C17.945 22.17 17.36 23.34 16.19 24.78C15.02 26.22 14.435 26.7 14.435 26.22C14.435 26.1 14.48 25.98 14.57 25.86C15.53 24.45 16.01 23.13 16.01 21.9C16.01 20.79 15.65 19.905 14.93 19.245C14.24 18.585 13.325 18.255 12.185 18.255C10.925 18.255 9.71 18.57 8.54 19.2C7.4 19.8 6.38 20.61 5.48 21.63C4.58 22.65 3.875 23.775 3.365 25.005C2.855 26.235 2.6 27.45 2.6 28.65C2.6 30.3 3.125 31.545 4.175 32.385C5.255 33.255 6.665 33.69 8.405 33.69C10.175 33.69 11.87 33.36 13.49 32.7C15.14 32.07 16.61 31.155 17.9 29.955C19.43 28.515 20.975 26.415 22.535 23.655L26.45 16.59C27.47 14.97 28.535 13.02 29.645 10.74C30.755 8.43 31.925 5.79 33.155 2.82C28.835 2.76 24.635 3.18 20.555 4.08C16.205 5.01 12.98 6.3 10.88 7.95C9.98 8.61 9.53 9.3 9.53 10.02C9.53 10.65 9.875 11.175 10.565 11.595C11.285 11.985 12.185 12.18 13.265 12.18C13.895 12.18 14.645 12.09 15.515 11.91C16.385 11.73 17.225 11.49 18.035 11.19C18.845 10.86 19.46 10.5 19.88 10.11C20.18 9.87 20.39 9.75 20.51 9.75C20.75 9.75 20.795 9.87 20.645 10.11C20.015 10.86 19.19 11.49 18.17 12C17.18 12.51 16.13 12.9 15.02 13.17C13.91 13.41 12.875 13.53 11.915 13.53C10.445 13.53 9.29 13.245 8.45 12.675C7.64 12.075 7.235 11.31 7.235 10.38C7.235 9.3 7.775 8.25 8.855 7.23C10.895 5.25 14.54 3.78 19.79 2.82C21.83 2.46 24.02 2.205 26.36 2.055C28.7 1.875 31.19 1.8 33.83 1.83C34.49 1.26 35.12 0.974998 35.72 0.974998C36.32 0.974998 36.545 1.29 36.395 1.92C38.285 2.04 40.19 2.28 42.11 2.64C44.06 3 45.83 3.51 47.42 4.17C49.04 4.8 50.345 5.595 51.335 6.555C52.325 7.485 52.82 8.595 52.82 9.885C52.82 11.265 52.355 12.585 51.425 13.845C50.525 15.075 49.355 16.17 47.915 17.13C46.505 18.09 45.02 18.855 43.46 19.425C42.02 19.935 40.475 20.34 38.825 20.64C37.205 20.94 35.6 21.09 34.01 21.09C32.81 21.09 31.655 21 30.545 20.82C29.465 20.64 28.475 20.355 27.575 19.965C25.745 22.635 24.215 24.81 22.985 26.49C21.785 28.17 20.855 29.34 20.195 30C16.955 33.24 13.085 34.86 8.585 34.86ZM32.885 20.01C33.995 20.01 35.09 19.905 36.17 19.695C37.28 19.455 38.465 19.14 39.725 18.75C40.985 18.33 42.26 17.805 43.55 17.175C44.84 16.515 46.025 15.78 47.105 14.97C48.185 14.13 49.055 13.245 49.715 12.315C50.375 11.355 50.705 10.395 50.705 9.435C50.705 8.355 50.255 7.425 49.355 6.645C48.455 5.835 47.27 5.175 45.8 4.665C44.33 4.155 42.74 3.765 41.03 3.495C39.32 3.195 37.67 3 36.08 2.91L34.64 7.41C34.13 8.7 33.41 10.2 32.48 11.91C31.55 13.62 30.41 15.54 29.06 17.67L28.07 19.2C28.28 19.32 28.505 19.425 28.745 19.515C29.015 19.575 29.3 19.635 29.6 19.695C30.17 19.815 30.725 19.905 31.265 19.965C31.805 19.995 32.345 20.01 32.885 20.01ZM49.5638 30.225C48.8438 30.225 48.1238 29.97 47.4038 29.46C46.6838 28.95 46.2788 28.35 46.1888 27.66C45.8888 25.35 47.3438 22.605 50.5538 19.425C53.7338 16.245 56.5988 14.655 59.1488 14.655C59.8388 14.655 60.3788 14.82 60.7688 15.15C60.9788 15.36 61.1288 15.645 61.2188 16.005C61.3388 16.365 61.4288 16.545 61.4888 16.545C61.6088 16.545 61.7138 16.53 61.8038 16.5C61.8938 16.44 61.9988 16.41 62.1188 16.41C62.4788 16.41 62.7938 16.545 63.0638 16.815C63.3338 17.085 63.4838 17.325 63.5138 17.535C63.5438 17.595 62.5838 19.08 60.6338 21.99C58.6838 24.84 57.7988 26.775 57.9788 27.795C58.1288 28.485 58.4588 28.83 58.9688 28.83C60.5288 28.83 63.3788 26.25 67.5188 21.09C67.6088 20.97 67.6988 20.91 67.7888 20.91C67.9388 20.91 68.0138 21.015 68.0138 21.225C68.0138 21.465 67.8788 21.765 67.6088 22.125C63.7988 27.255 60.8738 29.82 58.8338 29.82C58.5638 29.82 58.3088 29.775 58.0688 29.685C56.7488 29.175 56.0888 28.185 56.0888 26.715C56.0888 26.205 56.1488 25.695 56.2688 25.185L53.4788 27.885C52.6388 28.725 51.8738 29.325 51.1838 29.685C50.5238 30.045 49.9838 30.225 49.5638 30.225ZM49.1588 29.235C50.8988 29.235 53.2688 27.33 56.2688 23.52L61.0388 16.95C60.7988 16.53 60.4088 16.32 59.8688 16.32C58.0388 16.32 55.5638 17.79 52.4438 20.73C49.2038 23.73 47.7488 26.205 48.0788 28.155C48.2288 28.875 48.5888 29.235 49.1588 29.235ZM76.5688 30.09C75.7588 30.09 75.1888 29.865 74.8588 29.415C74.5288 28.935 74.3638 28.35 74.3638 27.66C74.3638 25.92 74.9638 24.06 76.1638 22.08L79.0438 17.4C77.0038 18.9 74.9788 20.775 72.9688 23.025C72.4288 23.625 71.8138 24.33 71.1238 25.14C70.4638 25.95 69.7288 26.88 68.9188 27.93C67.8388 29.34 67.1938 30.045 66.9838 30.045C66.5638 30.045 66.2188 29.865 65.9488 29.505C65.6788 29.115 65.5438 28.77 65.5438 28.47C65.5438 28.23 65.6188 27.795 65.7688 27.165C65.9188 26.505 66.0988 25.935 66.3088 25.455C66.5188 24.945 66.7288 24.45 66.9388 23.97C67.1788 23.46 67.4038 22.965 67.6138 22.485L64.9137 25.32C64.8537 25.38 64.6737 25.56 64.3737 25.86C64.0737 26.16 63.8337 26.31 63.6537 26.31C63.5037 26.31 63.4287 26.205 63.4287 25.995C63.4287 25.935 63.4587 25.86 63.5187 25.77C63.5487 25.65 63.6387 25.515 63.7887 25.365C64.2387 24.915 64.7037 24.435 65.1838 23.925C65.6638 23.415 66.1588 22.83 66.6688 22.17C66.9388 21.84 67.3438 21.345 67.8838 20.685C68.4238 19.995 69.0088 19.26 69.6388 18.48C70.2988 17.7 70.9138 16.98 71.4838 16.32C71.6338 16.11 71.7988 15.975 71.9788 15.915C72.1588 15.825 72.2788 15.78 72.3388 15.78C73.1488 15.78 73.5538 16.095 73.5538 16.725C73.5538 16.905 73.5088 17.085 73.4188 17.265C70.7188 20.985 69.0988 23.82 68.5588 25.77C72.0388 22.29 74.8288 19.68 76.9288 17.94C79.0588 16.17 80.5738 15.285 81.4738 15.285C81.9538 15.285 82.3138 15.36 82.5538 15.51C82.8238 15.66 82.9588 15.945 82.9588 16.365C82.9588 16.515 82.9438 16.635 82.9138 16.725C82.8238 16.935 82.2088 17.775 81.0688 19.245C80.3788 20.085 79.7638 20.85 79.2238 21.54C78.7138 22.23 78.2938 22.83 77.9638 23.34C77.4238 24.18 77.0188 24.975 76.7488 25.725C76.4788 26.445 76.3438 27.06 76.3438 27.57C76.3438 27.78 76.3738 28.035 76.4338 28.335C76.4938 28.635 76.6738 28.785 76.9737 28.785C77.6637 28.785 78.7438 28.185 80.2138 26.985C80.9038 26.385 81.5488 25.785 82.1488 25.185C82.7488 24.555 83.3188 23.94 83.8588 23.34C83.9788 23.22 84.1738 22.995 84.4438 22.665C84.7138 22.305 84.8788 22.125 84.9388 22.125C85.0588 22.125 85.1188 22.245 85.1188 22.485C85.1188 22.605 85.0438 22.815 84.8938 23.115C84.7738 23.385 84.6388 23.595 84.4888 23.745C84.1588 24.135 83.6638 24.675 83.0038 25.365C82.3738 26.055 81.6538 26.76 80.8438 27.48C80.0638 28.2 79.2988 28.815 78.5488 29.325C77.7988 29.835 77.1388 30.09 76.5688 30.09ZM93.1882 14.52C92.6782 14.52 92.2282 14.355 91.8382 14.025C91.4782 13.695 91.2982 13.32 91.2982 12.9C91.2982 12.06 91.8682 11.64 93.0082 11.64C93.4282 11.64 93.8482 11.79 94.2682 12.09C94.6882 12.36 94.8982 12.705 94.8982 13.125C94.8982 13.485 94.7032 13.815 94.3132 14.115C93.9232 14.385 93.5482 14.52 93.1882 14.52ZM84.8632 30.495C84.2032 30.495 83.6632 30.285 83.2432 29.865C82.7932 29.415 82.5682 28.635 82.5682 27.525C82.5682 26.895 82.7182 26.175 83.0182 25.365C83.2882 24.525 83.6332 23.685 84.0532 22.845C84.5032 22.005 84.9382 21.255 85.3582 20.595C87.0382 17.865 88.4182 16.485 89.4982 16.455C89.7682 16.455 90.0982 16.575 90.4882 16.815C90.8782 17.025 91.0732 17.265 91.0732 17.535C91.0732 17.535 89.9332 19.005 87.6532 21.945C85.4032 24.855 84.2782 26.925 84.2782 28.155C84.2782 29.115 84.6532 29.595 85.4032 29.595C85.8832 29.595 86.4982 29.4 87.2482 29.01C88.0282 28.59 88.8382 28.065 89.6782 27.435C90.5182 26.805 91.3132 26.13 92.0632 25.41C92.8432 24.69 93.4732 24.03 93.9532 23.43C94.2532 23.04 94.5082 22.77 94.7182 22.62C94.9582 22.47 95.1082 22.395 95.1682 22.395C95.2882 22.395 95.3482 22.485 95.3482 22.665C95.3482 22.815 95.1682 23.115 94.8082 23.565C94.4782 24.015 94.0132 24.54 93.4132 25.14C92.6932 25.86 91.8982 26.64 91.0282 27.48C90.1582 28.32 89.2132 29.04 88.1932 29.64C87.1732 30.21 86.0632 30.495 84.8632 30.495ZM96.4095 30.225C95.6895 30.225 94.9695 29.97 94.2495 29.46C93.5295 28.95 93.1245 28.35 93.0345 27.66C92.7345 25.35 94.1895 22.605 97.3995 19.425C100.58 16.245 103.445 14.655 105.995 14.655C106.685 14.655 107.225 14.82 107.615 15.15C107.825 15.36 107.975 15.645 108.065 16.005C108.185 16.365 108.275 16.545 108.335 16.545C108.455 16.545 108.56 16.53 108.65 16.5C108.74 16.44 108.845 16.41 108.965 16.41C109.325 16.41 109.64 16.545 109.91 16.815C110.18 17.085 110.33 17.325 110.36 17.535C110.39 17.595 109.43 19.08 107.48 21.99C105.53 24.84 104.645 26.775 104.825 27.795C104.975 28.485 105.305 28.83 105.815 28.83C107.375 28.83 110.225 26.25 114.365 21.09C114.455 20.97 114.545 20.91 114.635 20.91C114.785 20.91 114.86 21.015 114.86 21.225C114.86 21.465 114.725 21.765 114.455 22.125C110.645 27.255 107.72 29.82 105.68 29.82C105.41 29.82 105.155 29.775 104.915 29.685C103.595 29.175 102.935 28.185 102.935 26.715C102.935 26.205 102.995 25.695 103.115 25.185L100.325 27.885C99.4845 28.725 98.7195 29.325 98.0295 29.685C97.3695 30.045 96.8295 30.225 96.4095 30.225ZM96.0045 29.235C97.7445 29.235 100.115 27.33 103.115 23.52L107.885 16.95C107.645 16.53 107.255 16.32 106.715 16.32C104.885 16.32 102.41 17.79 99.2895 20.73C96.0495 23.73 94.5945 26.205 94.9245 28.155C95.0745 28.875 95.4345 29.235 96.0045 29.235ZM123.414 30.09C122.604 30.09 122.034 29.865 121.704 29.415C121.374 28.935 121.209 28.35 121.209 27.66C121.209 25.92 121.809 24.06 123.009 22.08L125.889 17.4C123.849 18.9 121.824 20.775 119.814 23.025C119.274 23.625 118.659 24.33 117.969 25.14C117.309 25.95 116.574 26.88 115.764 27.93C114.684 29.34 114.039 30.045 113.829 30.045C113.409 30.045 113.064 29.865 112.794 29.505C112.524 29.115 112.389 28.77 112.389 28.47C112.389 28.23 112.464 27.795 112.614 27.165C112.764 26.505 112.944 25.935 113.154 25.455C113.364 24.945 113.574 24.45 113.784 23.97C114.024 23.46 114.249 22.965 114.459 22.485L111.759 25.32C111.699 25.38 111.519 25.56 111.219 25.86C110.919 26.16 110.679 26.31 110.499 26.31C110.349 26.31 110.274 26.205 110.274 25.995C110.274 25.935 110.304 25.86 110.364 25.77C110.394 25.65 110.484 25.515 110.634 25.365C111.084 24.915 111.549 24.435 112.029 23.925C112.509 23.415 113.004 22.83 113.514 22.17C113.784 21.84 114.189 21.345 114.729 20.685C115.269 19.995 115.854 19.26 116.484 18.48C117.144 17.7 117.759 16.98 118.329 16.32C118.479 16.11 118.644 15.975 118.824 15.915C119.004 15.825 119.124 15.78 119.184 15.78C119.994 15.78 120.399 16.095 120.399 16.725C120.399 16.905 120.354 17.085 120.264 17.265C117.564 20.985 115.944 23.82 115.404 25.77C118.884 22.29 121.674 19.68 123.774 17.94C125.904 16.17 127.419 15.285 128.319 15.285C128.799 15.285 129.159 15.36 129.399 15.51C129.669 15.66 129.804 15.945 129.804 16.365C129.804 16.515 129.789 16.635 129.759 16.725C129.669 16.935 129.054 17.775 127.914 19.245C127.224 20.085 126.609 20.85 126.069 21.54C125.559 22.23 125.139 22.83 124.809 23.34C124.269 24.18 123.864 24.975 123.594 25.725C123.324 26.445 123.189 27.06 123.189 27.57C123.189 27.78 123.219 28.035 123.279 28.335C123.339 28.635 123.519 28.785 123.819 28.785C124.509 28.785 125.589 28.185 127.059 26.985C127.749 26.385 128.394 25.785 128.994 25.185C129.594 24.555 130.164 23.94 130.704 23.34C130.824 23.22 131.019 22.995 131.289 22.665C131.559 22.305 131.724 22.125 131.784 22.125C131.904 22.125 131.964 22.245 131.964 22.485C131.964 22.605 131.889 22.815 131.739 23.115C131.619 23.385 131.484 23.595 131.334 23.745C131.004 24.135 130.509 24.675 129.849 25.365C129.219 26.055 128.499 26.76 127.689 27.48C126.909 28.2 126.144 28.815 125.394 29.325C124.644 29.835 123.984 30.09 123.414 30.09ZM139.314 30.54C138.324 30.54 137.439 30.255 136.659 29.685C135.909 29.115 135.249 28.395 134.679 27.525C134.139 26.655 133.674 25.785 133.284 24.915C133.074 25.185 132.849 25.53 132.609 25.95C132.399 26.37 132.144 26.865 131.844 27.435L130.449 30.225C129.369 29.805 128.829 29.235 128.829 28.515C128.829 27.225 130.794 23.64 134.724 17.76C138.534 12.06 141.159 8.7 142.599 7.68C142.749 7.59 142.989 7.545 143.319 7.545C144.249 7.545 144.714 7.785 144.714 8.265C144.714 8.355 144.504 8.685 144.084 9.255C143.664 9.795 143.139 10.455 142.509 11.235C141.879 12.015 141.234 12.81 140.574 13.62C139.944 14.4 139.389 15.09 138.909 15.69C138.429 16.26 138.159 16.62 138.099 16.77C140.829 15.36 143.004 14.655 144.624 14.655C145.254 14.655 145.824 14.835 146.334 15.195C146.874 15.555 147.294 15.99 147.594 16.5C147.894 17.01 148.014 17.505 147.954 17.985C147.714 19.695 146.514 21.105 144.354 22.215C142.614 23.145 141.024 23.61 139.584 23.61C138.024 23.61 136.944 23.415 136.344 23.025C136.164 22.995 136.014 23.04 135.894 23.16C135.804 23.25 135.789 23.4 135.849 23.61C136.689 27.33 138.084 29.19 140.034 29.19C140.994 29.19 142.269 28.635 143.859 27.525C145.479 26.415 147.189 24.795 148.989 22.665C149.199 22.455 149.394 22.35 149.574 22.35C149.724 22.35 149.799 22.44 149.799 22.62C149.799 22.77 149.694 22.995 149.484 23.295C148.614 24.345 147.594 25.44 146.424 26.58C145.284 27.69 144.099 28.635 142.869 29.415C141.639 30.165 140.454 30.54 139.314 30.54ZM136.704 22.44C138.054 22.44 139.824 21.885 142.014 20.775C144.534 19.515 145.794 18.18 145.794 16.77C145.794 16.53 145.659 16.29 145.389 16.05C145.119 15.81 144.834 15.69 144.534 15.69C142.914 15.69 141.024 16.32 138.864 17.58C136.494 19.02 135.054 20.595 134.544 22.305C134.874 22.305 135.294 22.335 135.804 22.395C136.344 22.425 136.644 22.44 136.704 22.44ZM150.814 30.225C150.094 30.225 149.374 29.97 148.654 29.46C147.934 28.95 147.529 28.35 147.439 27.66C147.139 25.35 148.594 22.605 151.804 19.425C154.984 16.245 157.849 14.655 160.399 14.655C161.089 14.655 161.629 14.82 162.019 15.15C162.229 15.36 162.379 15.645 162.469 16.005C162.589 16.365 162.679 16.545 162.739 16.545C162.859 16.545 162.964 16.53 163.054 16.5C163.144 16.44 163.249 16.41 163.369 16.41C163.729 16.41 164.044 16.545 164.314 16.815C164.584 17.085 164.734 17.325 164.764 17.535C164.794 17.595 163.834 19.08 161.884 21.99C159.934 24.84 159.049 26.775 159.229 27.795C159.379 28.485 159.709 28.83 160.219 28.83C161.779 28.83 164.629 26.25 168.769 21.09C168.859 20.97 168.949 20.91 169.039 20.91C169.189 20.91 169.264 21.015 169.264 21.225C169.264 21.465 169.129 21.765 168.859 22.125C165.049 27.255 162.124 29.82 160.084 29.82C159.814 29.82 159.559 29.775 159.319 29.685C157.999 29.175 157.339 28.185 157.339 26.715C157.339 26.205 157.399 25.695 157.519 25.185L154.729 27.885C153.889 28.725 153.124 29.325 152.434 29.685C151.774 30.045 151.234 30.225 150.814 30.225ZM150.409 29.235C152.149 29.235 154.519 27.33 157.519 23.52L162.289 16.95C162.049 16.53 161.659 16.32 161.119 16.32C159.289 16.32 156.814 17.79 153.694 20.73C150.454 23.73 148.999 26.205 149.329 28.155C149.479 28.875 149.839 29.235 150.409 29.235Z" fill="#191717"/>
</svg>
